# AST/ASF file generated using VICON BodyLanguage
# -----------------------------------------------
:version 1.10
:name VICON
:units
  mass 1.0
  length 0.45
  angle deg
:documentation
   .ast/.asf automatically generated from VICON data using
   VICON BodyBuilder and BodyLanguage model FoxedUp or BRILLIANT.MOD
:root
   order TX TY TZ RX RY RZ
   axis XYZ
   position 0 0 0  
   orientation 0 0 0 
:bonedata
  begin
     id 1 
     name lhipjoint
     direction 0.535335 -0.74333 0.401095 
     length 2.04549 
     axis 0 0 0  XYZ
  end
  begin
     id 2 
     name lfemur
     direction 0.34202 -0.939693 0  
     length 6.95643  
     axis 0 0 20  XYZ
    dof rx ry rz
    limits (-160.0 20.0)
           (-70.0 70.0)
           (-60.0 70.0)
  end
  begin
     id 3 
     name ltibia
     direction 0.34192 -0.939729 0   
     length 5.55969   
     axis 0 0 20   XYZ
    dof rx
    limits (-10.0 170.0)
  end
  begin
     id 4 
     name lfoot
     direction 0.216943 -0.596046 0.773088   
     length 2.27918   
     axis -90 7.62852e-016 20   XYZ
    dof rx rz
    limits (-45.0 90.0)
           (-70.0 20.0)
  end
  begin
     id 5 
     name ltoes
     direction 1.53519e-011 -4.21748e-011 1   
     length 1.05562   
     axis -90 7.62852e-016 20   XYZ
    dof rx
    limits (-90.0 20.0)
  end
  begin
     id 6 
     name rhipjoint
     direction -0.576368 -0.719173 0.38806   
     length 2.1142  
     axis 0 0 0  XYZ 
  end
  begin
     id 7 
     name rfemur
     direction -0.34202 -0.939693 0   
     length 7.07928   
     axis 0 0 -20   XYZ
    dof rx ry rz
    limits (-160.0 20.0)
           (-70.0 70.0)
           (-70.0 60.0)
  end
  begin
     id 8 
     name rtibia
     direction -0.34202 -0.939693 0   
     length 5.79974   
     axis 0 0 -20   XYZ
    dof rx
    limits (-10.0 170.0)
 end
 begin
     id 9 
     name rfoot
     direction -0.189288 -0.520065 0.832888   
     length 2.42173  
     axis -90 -7.62852e-016 -20   XYZ
    dof rx rz
    limits (-45.0 90.0)
           (-20.0 70.0)
  end
  begin
     id 10 
     name rtoes
     direction -1.53574e-011 -4.21658e-011 1   
     length 1.14469   
     axis -90 -7.62852e-016 -20   XYZ
    dof rx
    limits (-90.0 20.0)
  end
  begin
     id 11 
     name lowerback
     direction -0.00135702 0.993803 0.111144   
     length 1.91308   
     axis 0 0 0   XYZ
    dof rx ry rz
    limits (-20.0 45.0)
           (-30.0 30.0)
           (-30.0 30.0)
  end
  begin
     id 12 
     name upperback
     direction -0.0056745 0.999813 0.0184631   
     length 1.9212   
     axis 0 0 0   XYZ
    dof rx ry rz
    limits (-20.0 45.0)
           (-30.0 30.0)
           (-30.0 30.0)
  end
  begin
     id 13 
     name thorax
     direction -0.00733434 0.999426 -0.0330788   
     length 1.94196   
     axis 0 0 0   XYZ
    dof rx ry rz
    limits (-20.0 45.0)
           (-30.0 30.0)
           (-30.0 30.0)
  end
  begin
     id 14 
     name lowerneck
     direction 0.0563074 0.996944 -0.0541571   
     length 2.34257   
     axis 0 0 0   XYZ
    dof rx ry rz
    limits (-20.0 45.0)
           (-30.0 30.0)
           (-30.0 30.0)
  end
  begin
     id 15 
     name upperneck
     direction -0.0544519 0.976166 -0.210085   
     length 2.32506   
     axis 0 0 0   XYZ
    dof rx ry rz
    limits (-20.0 45.0)
           (-30.0 30.0)
           (-30.0 30.0)
  end
  begin
     id 16
     name head
     direction -0.0226035 0.997615 -0.0652205  
     length 2.3648  
     axis 0 0 0   XYZ
    dof rx ry rz
    limits (-20.0 45.0)
           (-30.0 30.0)
           (-30.0 30.0)
  end
  begin
     id 17 
     name lclavicle
     direction 0.92109 0.381297 -0.0787716  
     length 4.0487  
     axis 0 0 0   XYZ
    dof ry rz
    limits (-20.0 10.0)
           (0.0 20.0)
  end
  begin
     id 18 
     name lhumerus
     direction 1 -4.48986e-011 3.56724e-027   
     length 4.94991   
     axis 180 -30 -90   XYZ
    dof rx ry rz
    limits (-60.0 90.0)
           (-90.0 90.0)
           (-90.0 90.0)
  end
  begin
     id 19
     name lradius
     direction 1 -4.48981e-011 8.62147e-027   
     length 2.7606   
     axis 180 -30 -90   XYZ
    dof rx
    limits (-10.0 170.0)
  end
  begin
     id 20
     name lwrist
     direction 1 -4.48989e-011 1.59799e-026   
     length 1.3803   
     axis -1.17785e-014 90 90   XYZ
    dof ry
    limits (-180.0 0.0)
 end
  begin
     id 21 
     name lhand
     direction 1 -4.48896e-011 3.19599e-026   
     length 0.843936   
     axis -2.03931e-014 90 90   XYZ
    dof rx rz
    limits (-90.0 90.0)
           (-45.0 45.0)
  end
  begin
     id 22 
     name lfingers
     direction 1 -4.48887e-011 6.39197e-026   
     length 0.680403   
     axis -4.07862e-014 90 90   XYZ
    dof rx
    limits (0.0 90.0)
  end
  begin
     id 23
     name lthumb
     direction 0.707107 -6.348e-011 0.707107   
     length 0.976926   
     axis -90 45 2.85299e-015   XYZ
    dof rx rz
    limits (-45.0 45.0)
           (-45.0 45.0)
  end
  begin
     id 24 
     name rclavicle
     direction -0.951104 0.307692 -0.026953   
     length 4.21801  
     axis 0 0 0   XYZ 
    dof ry rz
    limits (-10.0 20.0)
           (-20.0 0.0)
  end
  begin
     id 25 
     name rhumerus
     direction -1 -4.4896e-011 -1.8171e-018  
     length 4.32982   
     axis 180 30 90   XYZ
    dof rx ry rz
    limits (-90.0 60.0)
           (-90.0 90.0)
           (-90.0 90.0)
  end
  begin
     id 26 
     name rradius
     direction -1 -4.48959e-011 8.25165e-027   
     length 3.20057   
     axis 180 30 90   XYZ
    dof rx
    limits (-10.0 170.0)
  end
  begin
     id 27 
     name rwrist
     direction -1 -4.48997e-011 1.59799e-026   
     length 1.60029   
     axis -1.17785e-014 -90 -90   XYZ
    dof ry
    limits (-180.0 0.0)
  end
  begin
     id 28
     name rhand
     direction -1 -4.49023e-011 3.19599e-026   
     length 0.960433   
     axis -2.03931e-014 -90 -90   XYZ
    dof rx rz
    limits (-90.0 90.0)
           (-45.0 45.0)
  end
  begin
     id 29
     name rfingers
     direction -1 -4.48802e-011 6.39197e-026   
     length 0.774326   
     axis -4.07862e-014 -90 -90   XYZ
    dof rx
    limits (0.0 90.0)
  end
  begin
     id 30
     name rthumb
     direction -0.707107 -6.34876e-011 0.707107   
     length 1.11178   
     axis -90 -45 -2.85299e-015   XYZ
    dof rx rz
    limits (-45.0 45.0)
           (-45.0 45.0)
  end
:hierarchy
  begin
    root lhipjoint rhipjoint lowerback
    lhipjoint lfemur
    lfemur ltibia
    ltibia lfoot
    lfoot ltoes
    rhipjoint rfemur
    rfemur rtibia
    rtibia rfoot
    rfoot rtoes
    lowerback upperback
    upperback thorax
    thorax lowerneck lclavicle rclavicle
    lowerneck upperneck
    upperneck head
    lclavicle lhumerus
    lhumerus lradius
    lradius lwrist
    lwrist lhand lthumb
    lhand lfingers
    rclavicle rhumerus
    rhumerus rradius
    rradius rwrist
    rwrist rhand rthumb
    rhand rfingers
end

#!OML:ASF C:\KaitlinTest1\Natural Motions\Nikki\Session 2\Nikki.ASF
:FULLY-SPECIFIED
:DEGREES
611
root -12.2787 16.5167 3.999 43.85 91.8353 37.8777
lowerback -9.74793 -1.87532 0.804517
upperback -4.31766 -2.40097 -0.482267
thorax 0.925004 -1.14901 -1.19525
lowerneck -6.24927 -11.6143 -9.55387
upperneck 6.00826 40.9921 5.41588
head 161.416 65.324 -42.7831
rclavicle 3.26007e-014 6.36111e-015
rhumerus -38.7485 -23.3258 -83.6829
rradius 15.519
rwrist 23.3631
rhand -35.9163 1.19776
rfingers 7.12502
rthumb -9.02905 -28.589
lclavicle 3.26007e-014 6.36111e-015
lhumerus -38.3175 15.3557 84.7366
lradius 18.7373
lwrist -30.553
lhand -34.3468 3.66524
lfingers 7.12502
lthumb -7.51429 33.5118
rfemur -6.07802 -20.0206 20.5605
rtibia 16.1477
rfoot -12.5022 8.34664
rtoes -2.14687e-014
lfemur -10.0672 16.1125 -17.3568
ltibia 20.3664
lfoot -8.31485 -19.4234
ltoes -9.54166e-015
612
root -12.2785 16.5169 3.99785 44.476 91.841 38.4919
lowerback -9.75364 -1.87373 0.823132
upperback -4.32405 -2.40031 -0.477728
thorax 0.920917 -1.14878 -1.20099
lowerneck -6.26439 -11.6288 -9.53826
upperneck 6.00028 40.968 5.40328
head 161.328 65.3293 -42.8407
rclavicle -1.963e-014 -1.11319e-014
rhumerus -38.7632 -23.3524 -83.6409
rradius 15.4991
rwrist 23.4344
rhand -35.9094 1.09929
rfingers 7.12502
rthumb -9.02242 -28.6878
lclavicle -1.963e-014 -1.11319e-014
lhumerus -38.2898 15.1841 84.8304
lradius 18.7651
lwrist -30.3595
lhand -34.4202 3.71929
lfingers 7.12502
lthumb -7.58513 33.5633
rfemur -6.08885 -19.9989 20.5823
rtibia 16.1345
rfoot -12.4831 8.336
rtoes 1.90833e-014
lfemur -10.0833 16.1204 -17.3434
ltibia 20.3735
lfoot -8.31772 -19.4291
ltoes 0
613
root -12.2791 16.5151 3.99579 45.1442 91.8827 39.2316
lowerback -9.65921 -1.87471 0.882812
upperback -4.30609 -2.40829 -0.473551
thorax 0.885259 -1.1544 -1.22794
lowerneck -6.31571 -11.6071 -9.55442
upperneck 6.02148 41.1107 5.43447
head 161.522 65.2029 -42.7245
rclavicle 7.00716e-015 1.03368e-014
rhumerus -38.7573 -23.4109 -83.5844
rradius 15.4636
rwrist 23.5468
rhand -35.9487 1.10051
rfingers 7.12502
rthumb -9.06031 -28.6849
lclavicle 7.00716e-015 1.03368e-014
lhumerus -38.2745 15.0761 84.8891
lradius 18.7955
lwrist -30.2204
lhand -34.504 3.74123
lfingers 7.12502
lthumb -7.666 33.5823
rfemur -6.00432 -19.9856 20.5984
rtibia 16.1372
rfoot -12.5017 8.31556
rtoes 2.14687e-014
lfemur -10.0044 16.1125 -17.2759
ltibia 20.3766
lfoot -8.3201 -19.4385
ltoes -2.54444e-014
614
root -12.2793 16.5163 3.99426 45.269 91.8652 39.3134
lowerback -9.73993 -1.86389 0.886115
upperback -4.28578 -2.39482 -0.47307
thorax 0.950708 -1.14716 -1.23125
lowerneck -6.37234 -11.6393 -9.55147
upperneck 5.98626 41.036 5.38572
head 161.302 65.2532 -42.8767
rclavicle 2.15184e-014 5.1684e-015
rhumerus -38.6914 -23.3799 -83.5922
rradius 15.4619
rwrist 23.5238
rhand -35.9836 1.08654
rfingers 7.12502
rthumb -9.09394 -28.6974
lclavicle 2.15184e-014 5.1684e-015
lhumerus -38.245 15.454 84.693
lradius 18.7505
lwrist -30.7286
lhand -34.4583 3.6545
lfingers 7.12502
lthumb -7.62197 33.4972
rfemur -6.05482 -19.9715 20.605
rtibia 16.1343
rfoot -12.4872 8.31232
rtoes -2.62396e-014
lfemur -10.065 16.167 -17.3088
ltibia 20.38
lfoot -8.3058 -19.4827
ltoes -8.5875e-014
615
root -12.2787 16.5148 3.99356 44.9083 91.8872 38.9848
lowerback -9.75339 -1.88059 0.885334
upperback -4.23304 -2.41894 -0.486565
thorax 1.0115 -1.15951 -1.2488
lowerneck -6.48033 -11.6638 -9.48171
upperneck 5.96614 41.045 5.37976
head 161.142 65.271 -43.0234
rclavicle 3.54334e-014 1.19271e-014
rhumerus -38.6267 -23.6663 -83.4848
rradius 15.3759
rwrist 23.8434
rhand -35.9808 1.0577
rfingers 7.12502
rthumb -9.09132 -28.7264
lclavicle 3.54334e-014 1.19271e-014
lhumerus -38.1886 15.5294 84.6123
lradius 18.7497
lwrist -30.9707
lhand -34.4136 3.71786
lfingers 7.12502
lthumb -7.57876 33.5621
rfemur -6.00278 -19.957 20.5975
rtibia 16.1252
rfoot -12.4797 8.27656
rtoes -3.10104e-014
lfemur -10.0234 16.1525 -17.2921
ltibia 20.3963
lfoot -8.32064 -19.4962
ltoes -3.33958e-014
616
root -12.2789 16.5163 3.99138 44.6271 91.8858 38.7079
lowerback -9.69603 -1.89171 0.882634
upperback -4.26632 -2.43239 -0.477817
thorax 0.945772 -1.16642 -1.23684
lowerneck -6.46193 -11.6334 -9.52456
upperneck 5.98754 41.1214 5.39259
head 161.266 65.2151 -42.9345
rclavicle 1.54555e-014 3.97569e-015
rhumerus -38.6944 -23.6127 -83.4328
rradius 15.373
rwrist 23.8647
rhand -36.0428 1.21828
rfingers 7.12502
rthumb -9.15112 -28.5632
lclavicle 1.54555e-014 3.97569e-015
lhumerus -38.2356 15.3099 84.7587
lradius 18.7976
lwrist -30.7245
lhand -34.4678 3.77802
lfingers 7.12502
lthumb -7.63108 33.6203
rfemur -5.99721 -19.953 20.5801
rtibia 16.1192
rfoot -12.4647 8.25856
rtoes 2.62396e-014
lfemur -10.0368 16.1703 -17.307
ltibia 20.4076
lfoot -8.31032 -19.5162
ltoes 9.54166e-015
617
root -12.2791 16.5154 3.99008 45.4257 91.9111 39.4923
lowerback -9.71732 -1.89385 0.917857
upperback -4.25289 -2.4391 -0.467951
thorax 0.970042 -1.17002 -1.24814
lowerneck -6.50574 -11.6349 -9.51916
upperneck 5.96467 41.0946 5.37752
head 161.231 65.2424 -42.9637
rclavicle 1.05356e-014 5.1684e-015
rhumerus -38.6435 -23.5625 -83.4776
rradius 15.3875
rwrist 23.8486
rhand -36.0546 1.1306
rfingers 7.12502
rthumb -9.16247 -28.6504
lclavicle 1.05356e-014 5.1684e-015
lhumerus -38.1909 15.4618 84.6674
lradius 18.7318
lwrist -30.9848
lhand -34.5184 3.77036
lfingers 7.12502
lthumb -7.67993 33.6109
rfemur -6.01365 -19.9467 20.6231
rtibia 16.1235
rfoot -12.4802 8.24793
rtoes 3.97569e-014
lfemur -10.0462 16.1721 -17.2747
ltibia 20.4044
lfoot -8.32231 -19.5084
ltoes 2.54444e-014
618
root -12.28 16.5149 3.98877 44.2052 91.8947 38.3117
lowerback -9.68406 -1.91624 0.861833
upperback -4.21176 -2.46576 -0.473403
thorax 0.995965 -1.18327 -1.22478
lowerneck -6.59586 -11.6435 -9.48827
upperneck 5.9317 41.0621 5.35137
head 161.056 65.323 -43.1159
rclavicle 7.45443e-016 1.59028e-015
rhumerus -38.5666 -23.4827 -83.5586
rradius 15.4446
rwrist 23.7486
rhand -36.0361 1.03023
rfingers 7.12502
rthumb -9.14463 -28.7515
lclavicle 7.45443e-016 1.59028e-015
lhumerus -38.126 15.6008 84.5932
lradius 18.6553
lwrist -31.2751
lhand -34.4425 3.72898
lfingers 7.12502
lthumb -7.60669 33.5722
rfemur -5.95158 -19.9005 20.5602
rtibia 16.1088
rfoot -12.4706 8.17441
rtoes -1.98785e-014
lfemur -10.0027 16.153 -17.3116
ltibia 20.408
lfoot -8.34031 -19.5137
ltoes -7.95139e-014
619
root -12.2787 16.5164 3.98632 43.2505 91.8636 37.3352
lowerback -9.7128 -1.91752 0.827544
upperback -4.21516 -2.46404 -0.476798
thorax 1.00958 -1.18178 -1.20988
lowerneck -6.62451 -11.6418 -9.51248
upperneck 5.9314 41.1017 5.34358
head 161.088 65.2602 -43.088
rclavicle 3.23025e-015 1.98785e-015
rhumerus -38.5587 -23.3544 -83.6074
rradius 15.4878
rwrist 23.5437
rhand -36.0639 1.05406
rfingers 7.12502
rthumb -9.17143 -28.7265
lclavicle 3.23025e-015 1.98785e-015
lhumerus -38.1368 15.3766 84.7627
lradius 18.7693
lwrist -30.9921
lhand -34.5214 3.73984
lfingers 7.12502
lthumb -7.6828 33.5803
rfemur -5.97746 -19.8836 20.5041
rtibia 16.0949
rfoot -12.4534 8.17444
rtoes -7.95139e-016
lfemur -10.0259 16.1676 -17.3775
ltibia 20.4155
lfoot -8.34406 -19.5304
ltoes 3.02153e-014
